<?xml version="1.0" encoding="UTF-8" ?>
<!DOCTYPE svg PUBLIC "-//W3C//DTD SVG 1.1//EN" "http://www.w3.org/Graphics/SVG/1.1/DTD/svg11.dtd">
<svg width="1280pt" height="960pt" viewBox="0 0 1280 960" version="1.1" xmlns="http://www.w3.org/2000/svg">
<g id="#dca976ff">
<path fill="#dca976" opacity="1.00" d=" M 588.07 258.42 C 601.33 256.96 614.66 256.24 627.99 256.47 C 642.38 256.12 656.79 257.68 670.87 260.60 C 673.70 261.23 676.86 260.99 679.34 262.71 C 668.01 260.44 656.41 260.88 644.98 259.58 C 631.95 259.73 618.93 260.70 605.98 262.08 C 601.09 262.42 596.48 264.28 591.62 264.74 C 578.59 266.96 566.11 271.42 553.61 275.56 C 550.56 277.12 547.40 278.43 544.13 279.46 C 516.85 291.50 491.60 308.36 470.56 329.53 C 457.90 342.45 446.52 356.69 437.16 372.19 C 431.62 382.19 425.85 392.11 421.80 402.84 C 417.50 413.28 414.28 424.11 411.69 435.09 C 409.18 448.58 406.17 462.13 406.53 475.93 C 406.76 486.94 405.88 498.03 407.57 508.95 C 408.52 517.66 410.49 526.21 412.07 534.81 C 414.14 540.83 414.94 547.21 417.46 553.07 C 427.29 582.92 444.01 610.37 465.47 633.30 C 470.23 631.27 472.70 626.54 475.47 622.48 C 479.80 615.67 481.86 607.83 484.19 600.21 C 485.34 592.49 487.50 584.94 487.82 577.12 C 487.84 570.73 488.76 564.40 488.48 558.01 C 488.83 550.88 489.59 543.78 489.52 536.63 C 490.71 532.81 490.31 528.77 491.08 524.88 C 492.51 516.99 495.27 508.86 501.31 503.29 C 506.20 498.56 512.10 494.89 518.52 492.64 C 518.40 505.93 521.02 519.06 521.57 532.28 C 525.78 530.70 528.51 526.30 533.16 525.51 C 537.52 524.38 541.61 528.07 542.63 532.11 C 545.38 540.94 543.89 550.41 542.29 559.32 C 541.23 568.20 537.80 577.07 531.29 583.38 C 526.61 586.29 521.16 587.37 515.70 587.11 C 515.61 597.79 514.87 608.69 516.85 619.21 C 529.95 615.73 543.54 614.83 556.94 613.18 C 565.65 612.67 574.28 611.25 583.02 611.33 C 590.34 610.25 597.73 610.61 605.08 609.99 C 620.07 610.14 635.08 609.56 650.05 610.45 C 656.71 610.71 663.36 611.21 670.02 611.47 C 676.33 611.14 682.51 612.75 688.80 612.90 C 691.14 610.44 692.60 607.33 694.60 604.61 C 705.30 589.52 717.62 575.67 730.23 562.17 C 731.73 560.37 733.82 558.90 734.30 556.46 C 730.17 556.50 725.91 558.67 721.97 556.60 C 719.14 555.31 716.37 552.39 716.97 549.03 C 716.67 543.12 721.69 538.95 725.98 535.77 C 730.83 531.84 737.79 531.60 743.56 533.33 C 746.92 534.92 747.54 538.64 747.12 541.99 C 747.63 545.24 744.95 547.45 743.63 550.11 C 752.90 551.69 759.20 559.45 764.30 566.71 C 768.42 573.37 772.13 580.33 774.90 587.65 C 779.61 597.88 782.02 609.00 784.03 620.04 C 784.66 622.43 784.53 624.92 784.57 627.38 C 785.02 627.40 785.92 627.44 786.37 627.46 C 790.25 622.74 794.68 618.47 798.12 613.39 C 800.38 614.83 802.99 616.24 803.40 619.21 C 804.48 619.56 805.58 619.90 806.69 620.24 C 780.65 649.04 746.64 670.69 709.26 681.33 C 704.71 683.35 699.71 683.63 694.94 684.82 C 699.77 682.77 704.80 681.27 709.79 679.67 C 717.85 675.83 726.26 672.68 733.97 668.11 C 742.81 662.86 751.76 657.64 759.77 651.19 C 759.59 648.74 757.12 650.51 755.92 650.80 C 748.01 654.07 739.73 656.32 731.41 658.26 C 721.91 659.27 712.73 662.20 703.19 662.88 C 690.73 663.56 678.41 666.01 665.92 666.10 C 659.32 666.94 652.65 666.18 646.05 666.97 C 616.34 666.83 586.53 667.84 557.00 664.04 C 551.26 663.31 545.47 662.97 539.73 662.27 C 532.25 661.50 525.02 659.28 517.56 658.42 C 506.53 655.95 495.33 653.15 485.40 647.59 C 481.42 645.29 479.57 641.10 478.00 637.01 C 475.18 635.41 471.78 635.43 468.63 635.59 C 471.45 641.29 477.38 644.51 481.68 648.99 C 512.36 676.52 550.67 694.90 590.89 703.44 C 601.56 705.02 612.13 707.66 622.96 707.94 C 642.09 709.01 661.50 708.77 680.38 705.14 C 676.72 707.47 672.21 707.26 668.14 708.31 C 647.72 712.73 626.73 711.47 606.00 711.49 C 556.83 708.08 508.83 689.29 470.47 658.32 C 452.85 644.04 437.37 627.19 424.34 608.65 C 420.45 602.51 416.58 596.35 412.92 590.07 C 409.24 582.72 405.45 575.40 402.13 567.88 C 399.24 559.23 395.45 550.87 393.50 541.94 C 386.31 517.37 384.83 491.47 386.46 466.03 C 387.91 443.28 394.09 421.17 402.12 399.95 C 408.69 384.93 416.77 370.62 425.88 357.01 C 435.25 344.48 445.13 332.20 456.79 321.69 C 478.27 301.27 503.90 285.46 531.22 274.12 C 549.43 266.52 568.70 261.90 588.07 258.42 M 591.03 614.77 C 580.29 614.72 569.61 615.89 558.93 616.90 C 545.15 618.76 531.09 619.21 517.69 623.21 C 517.73 626.38 517.79 629.72 519.42 632.56 C 530.99 625.26 544.87 623.43 558.07 620.95 C 578.62 618.45 599.27 616.75 619.99 617.00 C 641.05 616.76 662.11 617.74 683.03 620.10 C 684.70 619.97 685.57 618.07 685.74 616.59 C 679.15 615.41 672.38 615.84 665.76 614.83 C 659.83 614.83 653.90 614.71 647.99 614.17 C 636.34 614.00 624.69 614.04 613.03 614.13 C 605.69 614.06 598.34 614.03 591.03 614.77 M 585.01 621.80 C 572.20 622.62 559.30 623.61 546.80 626.69 C 538.23 628.13 529.53 630.27 522.12 634.95 C 520.22 635.82 518.79 638.81 520.68 640.37 C 525.08 645.36 532.02 646.14 537.94 648.33 C 549.71 651.51 561.85 653.03 573.93 654.58 C 604.23 656.98 634.75 658.46 665.09 655.59 C 677.48 655.08 689.84 653.66 702.00 651.30 C 697.92 649.46 693.36 648.70 689.03 647.63 C 675.49 649.97 661.91 652.59 648.12 652.77 C 626.69 653.38 605.09 653.73 583.85 650.28 C 577.50 649.14 570.92 648.81 564.90 646.29 C 560.96 645.19 557.15 643.58 554.15 640.73 C 553.87 639.48 553.60 638.24 553.33 637.01 C 554.84 634.87 556.68 632.92 559.27 632.19 C 567.67 628.11 577.12 627.79 586.10 625.87 C 592.70 625.18 599.33 624.85 605.94 624.24 C 621.31 624.37 636.75 623.48 652.06 625.07 C 661.73 625.46 671.18 627.68 680.80 628.58 C 682.15 627.20 682.29 625.11 682.94 623.37 C 672.60 622.77 662.37 620.92 652.01 620.83 C 629.70 619.33 607.26 619.74 585.01 621.80 M 576.50 629.70 C 569.77 631.58 562.26 632.04 556.67 636.69 C 555.73 637.48 555.91 639.20 556.99 639.82 C 562.79 644.01 569.99 645.46 576.92 646.58 C 587.77 649.03 598.91 649.79 610.00 650.37 C 625.27 651.87 640.64 650.63 655.93 650.29 C 665.69 648.96 675.58 648.47 685.13 645.92 C 683.66 644.40 681.76 643.19 680.87 641.21 C 679.31 638.14 679.82 634.59 679.92 631.29 C 672.55 628.96 664.80 628.25 657.13 627.82 C 642.82 626.21 628.40 626.48 614.03 626.63 C 601.49 627.17 588.88 627.41 576.50 629.70 M 496.01 638.57 C 491.84 638.70 487.73 637.88 483.60 637.54 C 482.08 640.33 484.83 642.63 486.88 644.14 C 493.57 648.51 501.39 650.61 509.02 652.66 C 521.57 655.53 534.28 657.74 547.06 659.33 C 553.11 659.40 559.05 660.66 565.07 661.03 C 575.35 662.13 585.70 662.52 596.04 662.66 C 612.32 663.45 628.63 663.45 644.91 663.22 C 652.89 662.21 660.96 662.95 668.95 662.09 C 679.72 661.79 690.32 659.85 701.05 659.16 C 711.18 658.27 721.08 655.85 731.14 654.41 C 732.54 654.24 733.85 653.73 734.91 652.75 C 725.91 653.74 716.86 651.44 707.93 653.21 C 692.33 656.81 676.33 658.44 660.36 659.09 C 643.27 660.75 626.07 659.64 608.94 659.99 C 594.25 659.44 579.54 658.75 564.94 656.97 C 551.56 654.81 537.90 653.01 525.36 647.59 C 520.91 645.53 516.26 642.22 515.75 636.93 C 509.14 637.15 502.63 638.71 496.01 638.57 Z" />
<path fill="#dca976" opacity="1.00" d=" M 622.28 306.63 C 624.48 308.94 626.10 311.70 628.04 314.21 C 636.30 314.07 646.24 312.70 652.67 319.10 C 652.68 329.11 652.11 339.19 653.83 349.10 C 654.00 357.37 655.04 366.10 651.46 373.86 C 650.60 373.71 648.88 373.39 648.02 373.24 C 647.08 371.64 647.36 369.79 647.39 368.05 C 647.54 360.35 648.27 352.66 647.80 344.96 C 642.14 346.69 636.07 345.17 630.50 347.21 C 622.74 349.66 614.45 348.21 606.53 349.57 C 606.75 355.08 606.14 360.56 606.06 366.06 C 606.02 368.40 605.10 370.74 603.50 372.46 C 601.04 374.66 597.68 375.27 594.69 376.43 C 593.59 374.22 592.54 372.00 591.33 369.87 C 592.44 368.18 594.32 367.57 596.20 367.12 C 599.51 361.66 598.25 355.09 598.46 349.04 C 598.14 337.91 601.06 326.57 598.04 315.61 C 598.96 316.24 599.88 316.89 600.80 317.55 C 607.88 317.14 614.84 315.66 621.87 314.74 C 621.94 312.03 621.99 309.32 622.28 306.63 M 630.83 322.24 C 627.40 322.19 628.27 326.41 628.21 328.70 C 633.26 328.61 638.38 328.15 643.30 329.64 C 643.94 330.76 644.60 331.89 645.26 333.02 C 642.89 334.01 640.77 336.01 638.07 335.91 C 634.71 335.77 631.39 336.25 628.13 336.98 C 627.87 338.55 627.63 340.13 627.41 341.71 C 634.00 341.32 641.10 339.20 647.37 342.20 C 647.08 335.30 648.03 328.24 646.54 321.44 C 641.33 321.80 636.03 321.70 630.83 322.24 M 603.75 326.89 C 604.17 328.25 604.61 329.62 605.05 330.98 C 610.68 330.70 616.28 329.97 621.87 329.22 C 621.84 327.23 621.82 325.24 621.76 323.26 C 615.89 325.15 609.59 324.86 603.75 326.89 M 606.02 339.82 C 606.11 341.26 606.21 342.71 606.32 344.16 C 611.29 342.92 616.68 343.55 621.38 341.33 C 621.30 340.37 621.13 338.47 621.04 337.52 C 615.99 337.82 610.79 337.99 606.02 339.82 Z" />
<path fill="#dca976" opacity="1.00" d=" M 629.67 352.97 C 631.97 353.72 634.01 355.03 635.79 356.67 C 634.87 360.37 634.12 364.13 633.89 367.94 C 633.00 368.93 632.12 369.93 631.24 370.93 C 626.81 371.06 621.84 370.49 618.13 373.43 C 616.99 370.81 613.13 371.52 612.48 368.69 C 611.46 364.29 613.15 359.72 611.94 355.30 C 617.32 356.79 622.89 354.67 628.38 354.71 C 628.70 354.28 629.35 353.41 629.67 352.97 M 619.04 362.28 C 618.90 363.75 618.77 365.23 618.67 366.71 C 622.17 366.48 625.66 366.07 629.18 365.83 C 628.82 364.01 628.49 362.20 628.14 360.40 C 625.10 360.99 622.06 361.60 619.04 362.28 Z" />
<path fill="#dca976" opacity="1.00" d=" M 804.30 363.41 C 805.43 362.34 807.86 364.76 806.00 365.42 C 804.74 365.26 804.17 364.59 804.30 363.41 Z" />
<path fill="#dca976" opacity="1.00" d=" M 630.13 392.38 C 636.33 393.03 642.40 390.25 648.60 391.65 C 649.84 392.09 651.40 392.52 651.89 393.93 C 649.90 396.27 647.36 398.95 644.01 398.67 C 640.14 398.61 636.09 398.61 632.70 400.77 C 629.40 399.23 629.89 395.37 630.13 392.38 Z" />
<path fill="#dca976" opacity="1.00" d=" M 593.60 401.57 C 594.20 397.60 597.32 394.91 599.83 392.06 C 601.17 392.87 602.50 393.69 603.83 394.54 C 606.77 393.61 609.80 392.97 612.89 392.77 C 608.47 398.41 602.60 402.98 596.47 406.69 C 594.29 406.46 592.74 403.58 593.60 401.57 Z" />
<path fill="#dca976" opacity="1.00" d=" M 639.51 407.23 C 644.71 406.30 650.00 406.35 655.27 406.40 C 656.17 407.25 657.07 408.11 657.98 408.98 C 656.05 410.66 654.26 412.60 651.99 413.85 C 643.53 416.31 634.15 412.73 626.01 416.67 C 623.00 415.45 622.34 411.26 624.72 409.06 C 629.73 409.63 634.53 407.46 639.51 407.23 Z" />
<path fill="#dca976" opacity="1.00" d=" M 606.48 409.40 C 608.42 408.43 609.40 410.92 610.62 411.92 C 609.23 419.84 610.88 427.95 609.47 435.89 C 608.68 439.91 609.65 444.57 606.76 447.90 C 605.73 445.39 605.06 442.72 605.31 439.98 C 605.69 431.52 607.35 423.12 606.90 414.62 C 603.52 416.56 600.70 419.36 597.26 421.26 C 594.40 422.54 593.74 426.55 590.49 427.03 C 588.28 422.72 588.59 415.89 593.81 414.07 C 594.35 414.44 595.42 415.18 595.96 415.55 C 599.40 413.41 602.55 410.66 606.48 409.40 Z" />
<path fill="#dca976" opacity="1.00" d=" M 638.25 429.33 C 638.83 425.80 638.33 421.72 640.92 418.89 C 643.61 426.19 643.76 434.19 643.41 441.89 C 641.98 446.00 637.30 447.64 633.76 449.57 C 631.90 448.54 626.97 449.25 628.74 446.06 C 631.05 445.00 633.91 444.72 635.53 442.53 C 638.80 438.91 637.54 433.73 638.25 429.33 Z" />
<path fill="#dca976" opacity="1.00" d=" M 634.86 474.80 C 635.35 470.62 634.39 466.00 636.44 462.18 C 638.19 463.45 640.53 464.26 641.74 466.13 C 642.34 468.71 641.52 471.37 641.45 473.98 C 646.57 473.94 651.84 473.61 656.68 475.63 C 656.64 476.13 656.57 477.13 656.53 477.63 C 652.57 481.97 646.40 481.64 641.05 481.58 C 639.49 481.37 639.31 483.30 638.58 484.20 C 643.68 484.74 648.96 483.69 653.94 485.22 C 655.63 485.62 657.29 487.22 656.66 489.10 C 655.59 493.15 651.88 496.45 647.68 496.90 C 645.87 504.89 649.44 512.78 648.73 520.85 C 644.65 525.65 638.20 527.37 632.14 527.55 C 628.99 527.50 626.89 525.08 625.03 522.88 C 631.08 521.92 636.93 519.58 641.39 515.27 C 641.61 509.46 641.48 503.63 642.00 497.84 C 638.97 497.63 635.99 498.31 633.06 498.97 C 628.37 500.02 623.36 499.95 619.00 502.19 C 617.57 500.85 616.77 499.16 616.94 497.19 C 625.04 496.34 633.03 494.70 641.11 493.73 C 641.80 493.07 642.46 492.38 643.09 491.66 C 645.45 493.18 648.11 493.83 650.85 492.89 C 650.89 491.20 651.58 487.90 648.88 488.25 C 643.57 488.98 638.20 487.29 632.98 488.72 C 629.66 489.61 626.25 490.17 622.81 490.15 C 622.17 490.77 621.55 491.41 620.93 492.05 C 617.50 492.33 617.20 488.75 617.07 486.23 C 623.41 485.79 629.67 484.49 636.04 484.36 C 635.97 483.54 635.84 481.90 635.77 481.08 C 631.11 482.01 625.83 480.39 621.79 483.45 C 619.32 482.45 618.57 479.90 618.38 477.47 C 623.75 475.97 629.23 474.65 634.86 474.80 Z" />
<path fill="#dca976" opacity="1.00" d=" M 516.29 471.34 C 517.90 470.00 520.02 469.49 522.00 468.98 C 531.46 470.44 539.06 480.09 537.53 489.71 C 536.58 490.82 535.68 491.96 534.80 493.12 C 533.16 493.62 531.54 494.14 529.93 494.72 C 521.61 493.06 514.49 485.67 514.50 476.97 C 514.85 475.03 515.28 473.05 516.29 471.34 Z" />
<path fill="#dca976" opacity="1.00" d=" M 598.46 468.35 C 603.32 468.37 604.58 473.44 605.79 477.15 C 604.14 477.32 602.19 478.58 600.80 477.12 C 599.66 474.31 598.94 471.33 598.46 468.35 Z" />
<path fill="#dca976" opacity="1.00" d=" M 588.17 481.60 C 597.34 480.40 607.32 477.95 616.13 481.95 C 613.27 483.76 610.68 486.70 607.03 486.59 C 602.28 486.63 597.39 486.22 592.92 488.16 C 591.38 489.15 589.97 487.67 588.62 487.15 C 588.48 485.29 588.34 483.44 588.17 481.60 Z" />
<path fill="#dca976" opacity="1.00" d=" M 588.03 493.61 C 594.02 491.08 600.67 491.20 607.05 491.36 C 608.94 491.33 610.71 492.04 612.48 492.62 C 606.92 497.34 599.10 495.07 593.07 498.50 C 590.93 497.40 589.52 495.40 588.03 493.61 Z" />
<path fill="#dca976" opacity="1.00" d=" M 588.21 501.48 C 596.47 500.02 605.40 497.51 613.26 501.92 C 611.26 503.00 609.49 504.83 607.08 504.88 C 602.82 505.24 598.25 504.48 594.33 506.63 C 592.95 507.23 591.24 508.60 589.91 507.15 C 588.83 505.47 588.64 503.38 588.21 501.48 Z" />
<path fill="#dca976" opacity="1.00" d=" M 623.74 507.25 C 626.76 507.31 629.78 507.46 632.82 507.53 C 631.45 509.06 630.89 513.23 628.11 511.72 C 626.22 510.73 625.02 508.87 623.74 507.25 Z" />
<path fill="#dca976" opacity="1.00" d=" M 601.83 511.90 C 604.94 510.72 608.21 512.08 611.35 512.49 C 611.58 513.17 612.05 514.52 612.29 515.20 C 610.37 520.57 605.05 523.29 599.77 524.40 C 597.27 523.12 594.58 521.69 593.37 519.00 C 592.95 516.78 593.99 514.66 595.00 512.77 C 597.31 512.86 599.65 512.80 601.83 511.90 M 599.28 519.83 C 601.66 519.41 604.03 518.88 606.38 518.30 C 606.33 517.36 606.28 516.43 606.24 515.50 C 603.31 515.52 599.22 515.91 599.28 519.83 Z" />
<path fill="#dca976" opacity="1.00" d=" M 635.77 545.69 C 637.11 545.04 638.44 544.35 639.87 543.91 C 643.56 547.19 642.37 552.89 643.15 557.30 C 647.09 557.52 651.12 556.99 655.00 557.94 C 657.38 558.09 656.14 560.87 656.11 562.29 C 655.00 562.44 653.90 562.58 652.81 562.74 C 652.67 563.36 652.38 564.61 652.24 565.24 C 649.49 566.13 646.65 566.66 643.77 566.79 C 643.61 570.01 643.02 573.19 642.44 576.36 C 647.84 575.46 653.44 576.08 658.73 574.65 C 658.73 576.50 658.73 578.37 658.61 580.23 C 655.36 582.18 652.02 584.47 648.02 584.16 C 639.00 584.06 629.96 583.76 620.99 584.96 C 618.09 585.92 616.52 581.64 613.58 583.47 C 608.67 581.42 606.67 576.20 605.13 571.52 C 604.72 571.54 603.90 571.58 603.49 571.61 C 604.38 577.40 603.68 583.30 604.32 589.12 C 604.66 592.05 604.88 595.12 603.62 597.89 C 601.95 598.07 601.37 596.20 600.34 595.27 C 600.21 587.13 601.21 579.01 600.97 570.88 C 600.72 570.37 600.24 569.35 600.00 568.84 C 598.59 572.09 597.86 575.56 596.74 578.92 C 594.74 585.65 591.77 592.04 588.73 598.37 C 587.68 597.20 586.67 596.00 585.71 594.78 C 591.12 584.60 594.56 573.60 598.52 562.82 L 598.22 561.78 C 595.13 561.66 592.02 561.52 588.96 561.99 C 588.50 561.78 587.58 561.36 587.12 561.16 C 587.52 559.25 586.66 557.54 585.97 555.84 C 587.25 555.09 588.50 554.18 589.98 553.86 C 590.82 554.50 591.63 555.18 592.41 555.91 C 598.30 555.60 604.18 554.74 610.09 555.00 C 611.99 554.97 613.52 556.21 615.12 557.06 C 612.63 557.18 610.66 558.55 609.33 560.56 C 607.21 560.83 605.09 561.00 602.98 561.15 C 603.06 563.44 603.12 565.74 603.18 568.05 C 604.31 568.22 605.45 568.38 606.60 568.55 C 609.29 571.58 611.92 574.67 614.69 577.65 C 615.49 577.52 617.09 577.26 617.89 577.13 C 618.33 577.48 619.22 578.19 619.67 578.55 C 625.83 577.25 632.15 577.10 638.38 576.24 C 638.03 573.40 637.88 570.54 637.86 567.68 C 633.53 567.36 629.22 567.72 624.94 568.30 C 622.20 568.79 619.72 567.27 617.40 566.06 C 616.96 564.24 616.38 562.47 615.67 560.75 C 616.46 560.32 617.27 559.91 618.08 559.51 C 623.54 560.63 629.03 558.91 634.47 558.40 C 637.51 554.94 637.57 549.75 635.77 545.69 Z" />
<path fill="#dca976" opacity="1.00" d=" M 596.16 546.01 C 601.07 546.02 606.01 545.69 610.91 546.13 C 611.34 546.54 612.19 547.34 612.62 547.75 C 608.94 549.67 605.20 551.19 600.96 550.97 C 598.82 549.89 596.95 548.34 596.16 546.01 Z" />
<path fill="#dca976" opacity="1.00" d=" M 595.01 633.55 C 612.13 630.09 629.80 630.37 647.12 632.08 C 653.89 633.15 661.01 633.50 667.16 636.87 C 668.65 637.79 669.19 640.24 667.53 641.27 C 664.50 643.48 660.69 644.23 657.06 644.87 C 643.79 646.62 630.36 646.21 617.02 645.89 C 607.08 644.97 596.35 644.69 587.82 638.87 C 588.89 635.81 592.13 634.41 595.01 633.55 M 592.08 636.15 C 591.48 636.61 590.27 637.54 589.66 638.00 C 591.29 639.13 592.91 640.49 594.93 640.88 C 610.56 644.85 626.84 645.45 642.89 644.80 C 651.20 643.79 659.99 643.77 667.59 639.85 C 664.37 635.74 658.79 635.81 654.15 634.71 C 647.20 632.99 640.01 633.10 632.96 632.13 C 619.25 631.95 605.32 632.17 592.08 636.15 Z" />
<path fill="#dca976" opacity="1.00" d=" M 618.66 635.63 C 623.66 634.55 628.90 635.52 634.00 635.46 C 628.90 635.65 623.74 636.12 618.66 635.63 Z" />
<path fill="#dca976" opacity="1.00" d=" M 636.24 635.26 C 637.39 634.62 640.17 634.34 640.63 635.78 C 639.46 636.31 636.60 636.76 636.24 635.26 Z" />
<path fill="#dca976" opacity="1.00" d=" M 613.48 636.24 C 614.20 635.44 616.72 635.33 616.61 636.78 C 615.86 637.54 613.37 637.66 613.48 636.24 Z" />
<path fill="#dca976" opacity="1.00" d=" M 609.40 637.30 C 610.03 636.57 612.74 636.57 611.30 637.97 C 610.62 638.90 609.77 639.52 608.75 639.82 C 606.92 639.58 608.04 637.29 609.40 637.30 Z" />
<path fill="#dca976" opacity="1.00" d=" M 650.38 640.03 C 649.64 638.82 651.58 637.57 652.51 638.45 C 653.16 639.58 651.27 641.06 650.38 640.03 Z" />
<path fill="#dca976" opacity="1.00" d=" M 611.26 640.10 C 614.25 638.55 611.43 643.38 611.26 640.10 Z" />
<path fill="#dca976" opacity="1.00" d=" M 647.68 640.11 C 650.71 638.56 647.90 643.33 647.68 640.11 Z" />
</g>
<g id="#a181613a">
<path fill="#a18161" opacity="0.23" d=" M 644.22 636.19 C 645.42 635.29 646.17 635.49 646.47 636.80 C 645.25 637.68 644.50 637.48 644.22 636.19 Z" />
<path fill="#a18161" opacity="0.23" d=" M 635.55 641.21 C 636.19 640.29 638.67 640.34 638.47 641.78 C 637.81 642.68 635.34 642.63 635.55 641.21 Z" />
<path fill="#a18161" opacity="0.23" d=" M 693.22 685.22 C 693.79 685.74 693.79 685.74 693.22 685.22 Z" />
<path fill="#a18161" opacity="0.23" d=" M 682.19 705.21 C 682.73 705.77 682.73 705.77 682.19 705.21 Z" />
</g>
</svg>
